<svg width="114" height="86" viewBox="0 0 114 86" fill="none" xmlns="http://www.w3.org/2000/svg">
<path d="M39.5413 34.3627C29.8808 34.3627 22.0494 26.6704 22.0494 17.1813C22.0494 7.69234 29.8808 -3.05176e-05 39.5413 -3.05176e-05C49.2018 -3.05176e-05 57.0332 7.69234 57.0332 17.1813C57.0332 26.6704 49.2018 34.3627 39.5413 34.3627Z" fill="#FD6584"/>
<path d="M0.393112 9.04569C0.886443 7.45689 1.84201 6.04448 3.14218 4.98233C4.44234 3.92019 6.03034 3.25471 7.71067 3.06778C7.7499 3.06456 7.78934 3.06456 7.82858 3.06778C7.87568 3.05332 7.92389 3.04254 7.97273 3.0356C13.8294 2.28916 20.3412 4.10379 24.7239 8.05475C26.3509 9.49832 27.6519 11.2607 28.5431 13.2283C29.3556 12.1383 30.4263 11.2592 31.6626 10.6672C32.8988 10.0752 34.2633 9.78809 35.638 9.83074C37.4108 9.94586 39.1044 10.5953 40.4878 11.6904C41.8712 12.7855 42.877 14.2731 43.3682 15.9502C43.4222 16.1551 43.4074 16.3717 43.326 16.5677C43.2445 16.7636 43.1008 16.9285 42.9162 17.0377C42.3893 17.4804 41.7629 17.7935 41.0885 17.9514C39.6407 18.2539 38.1798 18.5306 36.7189 18.7815C33.8626 19.2706 30.9911 19.6674 28.1042 19.972C26.1978 20.1715 24.2871 20.3302 22.372 20.4481C18.4151 20.6927 14.4387 20.7506 10.4752 20.6283C8.50992 20.564 6.62321 20.4996 4.82821 19.6502C3.52021 19.0184 2.40251 18.0625 1.58541 16.8768C0.816188 15.7364 0.310776 14.4442 0.104782 13.0912C-0.101212 11.7382 -0.00278662 10.3573 0.393112 9.04569V9.04569Z" fill="#E6E6E6"/>
<path d="M36.3783 34.0771C36.4115 33.3571 36.5347 32.6439 36.7452 31.9536C37.2408 30.3649 38.1979 28.9529 39.499 27.891C40.8001 26.8291 42.3885 26.1634 44.0693 25.9756C44.1063 25.9724 44.1436 25.9724 44.1807 25.9756C44.2302 25.9618 44.2805 25.9511 44.3314 25.9435C47.5728 25.5535 50.862 25.8856 53.9549 26.9151C58.711 28.4788 62.884 31.6318 64.8952 36.1362C65.7085 35.0455 66.7803 34.166 68.0177 33.574C69.2552 32.9819 70.6209 32.6952 71.9966 32.7386C73.7695 32.8537 75.4631 33.5031 76.8464 34.5982C78.2298 35.6934 79.2357 37.1809 79.7269 38.8581C79.7778 39.063 79.7615 39.2785 79.6804 39.4738C79.5992 39.6691 79.4572 39.8342 79.2748 39.9456C78.7471 40.387 78.121 40.7 77.4471 40.8593C75.9928 41.1618 74.5384 41.4385 73.071 41.6894C70.2147 42.1785 67.3453 42.5753 64.4628 42.8799C58.6067 43.4974 52.7142 43.7167 46.8273 43.5362C44.8685 43.4718 42.9753 43.4075 41.1803 42.5581C39.8742 41.926 38.7587 40.9701 37.944 39.7847C36.7957 38.1038 36.2452 36.0971 36.3783 34.0771V34.0771Z" fill="#E6E6E6"/>
<path d="M29.8847 76.0613C30.0935 76.9566 29.9471 77.8964 29.4751 78.6893C29.1988 79.0925 28.7939 79.3941 28.3242 79.5467C27.8544 79.6993 27.3464 79.6944 26.8798 79.5326C25.0475 78.9738 23.2397 78.3194 21.423 77.713C21.175 77.6399 20.9653 77.4757 20.8375 77.2545C20.7096 77.0334 20.6735 76.7723 20.7367 76.5257C20.8081 76.2802 20.9747 76.072 21.2008 75.9459C21.4268 75.8199 21.6942 75.786 21.9455 75.8515L26.4853 77.3668C26.8277 77.4811 27.1689 77.6111 27.5179 77.705C27.5544 77.7148 27.6877 77.7436 27.6805 77.7429C27.6638 77.7414 27.5603 77.7522 27.6751 77.7444C27.7407 77.7251 27.7402 77.7293 27.6738 77.7571L27.7606 77.7085C27.6814 77.7734 27.7702 77.6999 27.7975 77.6727C27.8216 77.6487 27.8923 77.553 27.8376 77.6316C27.877 77.5755 27.9115 77.5162 27.9406 77.4543C27.8926 77.5586 27.9827 77.3006 27.989 77.2649C28.0258 76.8625 28.0024 76.457 27.9194 76.0613C27.9206 75.8056 28.0246 75.5609 28.2086 75.3801C28.3926 75.1994 28.6418 75.0973 28.902 75.096C29.1606 75.1023 29.4069 75.206 29.5898 75.3857C29.7727 75.5654 29.8783 75.8072 29.8847 76.0613V76.0613Z" fill="#3F3D56"/>
<path d="M103.048 79.4505L98.2049 85.4492C97.5885 86.2126 96.2673 85.3862 96.5625 84.5101C97.1662 82.7185 95.0823 81.7202 93.6438 81.4252C91.7353 81.0337 89.8203 81.0972 88.0093 80.2915C86.859 79.7797 87.8569 78.1155 89.0013 78.6247C91.1197 79.5672 93.5898 79.1351 95.7348 80.0518C97.6521 80.8713 99.1681 82.9147 98.4576 85.0233L96.8152 84.0842L101.659 78.0855C101.844 77.9061 102.093 77.8056 102.353 77.8056C102.613 77.8056 102.863 77.9061 103.048 78.0855C103.227 78.2693 103.327 78.5138 103.327 78.768C103.327 79.0223 103.227 79.2668 103.048 79.4506L103.048 79.4505Z" fill="#3F3D56"/>
<path d="M112.875 9.3113L108.032 15.31C107.415 16.0733 106.094 15.2469 106.389 14.3709C106.993 12.5792 104.909 11.5809 103.47 11.2859C101.562 10.8945 99.6469 10.958 97.836 10.1523C96.6856 9.6405 97.6835 7.97631 98.8279 8.48545C100.946 9.42793 103.416 8.99586 105.561 9.91262C107.479 10.732 108.995 12.7755 108.284 14.884L106.642 13.9449L111.485 7.9463C111.67 7.76692 111.92 7.66635 112.18 7.66635C112.44 7.66635 112.69 7.76692 112.875 7.9463C113.054 8.13009 113.154 8.37456 113.154 8.62882C113.154 8.88308 113.054 9.12755 112.875 9.31134L112.875 9.3113Z" fill="#3F3D56"/>
</svg>
