<svg width="403" height="285" viewBox="0 0 403 285" fill="none" xmlns="http://www.w3.org/2000/svg">
<g clip-path="url(#clip0_416_436)">
<rect width="403" height="285" transform="translate(0 -0.000610352)" fill="white"/>
<path d="M150.807 47.9026C162.664 57.3347 175.882 49.4379 188.551 48.8346C194.426 48.5548 200.289 49.9013 206.079 50.9058C211.575 51.8592 217.051 53.246 222.075 55.611C227.552 58.0983 232.21 61.9599 235.547 66.7791C236.21 67.7641 237.21 67.0367 237.203 65.8593C237.123 53.3558 231.436 54.3683 225.499 55.2905C219.854 56.1671 215.056 50.842 209.486 49.696C203.657 48.581 197.766 47.7829 191.842 47.3057C185.419 46.6994 178.981 46.2881 172.526 46.0718C165.289 45.8291 158.049 45.8319 150.807 46.0801C149.577 46.1217 149.571 47.9444 150.807 47.9026L150.807 47.9026Z" fill="#3F3D56"/>
<path d="M110.814 148.489C110.983 148.662 111.076 148.89 111.071 149.127C111.067 149.363 110.966 149.588 110.791 149.755C110.615 149.922 110.378 150.017 110.13 150.022C109.881 150.026 109.641 149.938 109.459 149.777C101.625 143.393 93.7903 137.012 85.9558 130.635C85.9468 130.626 85.9359 130.617 85.9238 130.611C85.3797 130.223 84.8651 129.799 84.3838 129.342C77.0924 128.534 69.079 125.861 61.4874 124.7C54.7839 125.648 48.0997 126.778 41.3771 127.616C35.5199 128.39 29.615 128.792 23.7016 128.819C18.8897 128.795 20.2818 117.068 15.9172 114.905C11.3801 112.658 2.28128 119.932 1.11824 115.388C0.543609 113.062 0.169601 110.695 -6.10352e-05 108.311V93.4942C0.619797 87.0427 11.4248 89.0329 16.5563 84.5315C24.2566 77.7763 26.8711 61.9295 36.7249 61.7412C48.4678 61.5057 60.2144 61.9947 71.8907 63.2052C81.4122 64.2015 91.4258 65.1674 100.232 69.0249C104.008 70.6833 107.568 80.2754 110.169 83.3918C113.137 87.0322 114.817 91.4723 114.968 96.076C115.434 105.85 110.756 114.792 108.194 124.02C105.97 132.008 104.718 141.692 110.814 148.489Z" fill="#F2F2F2"/>
<path d="M86.8461 131.572C94.789 138.044 102.733 144.514 110.678 150.984C110.86 151.145 111.1 151.233 111.349 151.229C111.597 151.224 111.835 151.129 112.01 150.962C112.186 150.795 112.287 150.569 112.291 150.333C112.295 150.097 112.203 149.868 112.034 149.695C105.938 142.903 107.19 133.219 109.412 125.226C111.978 115.998 116.656 107.059 116.187 97.2868C116.039 92.682 114.358 88.2405 111.387 84.6009C108.701 81.5383 105.299 79.1151 101.453 77.5249C92.6472 73.6674 82.6355 72.6973 73.1096 71.7035C61.4348 70.492 49.6896 70.0022 37.948 70.2374C28.0913 70.4301 16.5611 70.6012 8.86126 77.3583C1.84896 83.5121 0.891189 93.1894 0.958811 101.733C0.997983 106.684 1.09789 111.768 2.33576 116.599C3.4994 121.14 6.02285 125.563 10.5614 127.81C14.9268 129.972 20.1131 130.006 24.9205 130.028C30.8339 130.004 36.7388 129.601 42.5952 128.822C54.3163 127.364 65.9255 125.01 77.7415 124.299C80.6329 124.125 83.5331 124.047 86.4301 124.105C87.6642 124.129 87.6641 122.307 86.4301 122.282C74.9412 122.054 63.5704 123.93 52.2666 125.638C41.333 127.29 30.156 128.847 19.0581 128.011C16.6252 127.903 14.233 127.377 11.9973 126.458C9.83807 125.483 8.01106 123.95 6.72513 122.034C3.83592 117.757 3.28851 112.399 3.03893 107.409C2.75422 103.09 2.79639 98.7574 3.16511 94.4445C3.59091 90.2628 4.61634 86.0211 6.95872 82.411C12.3018 74.176 23.1048 70.7492 32.3247 72.2286C42.7073 73.8945 50.6491 81.7839 66.4922 72.9179C71.4654 70.1349 77.9824 74.0078 83.6889 74.8262C87.9535 75.3852 92.16 76.2903 96.2623 77.5314C100.209 78.6765 103.887 80.5348 107.094 83.0044C110.45 85.7026 112.786 89.3697 113.747 93.4472C115.947 102.837 111.586 112.21 108.703 120.997C106.134 128.83 103.942 138.029 107.402 145.933C108.208 147.769 109.314 149.474 110.678 150.984L112.034 149.695C104.091 143.223 96.1468 136.752 88.2017 130.283C87.2696 129.523 85.9075 130.807 86.8461 131.572H86.8461Z" fill="#E6E6E6"/>
<path d="M53.0013 89.1698H24.104C23.8388 89.1698 23.5845 89.0697 23.397 88.8915C23.2095 88.7132 23.1042 88.4715 23.1042 88.2194C23.1042 87.9673 23.2095 87.7256 23.397 87.5473C23.5845 87.3691 23.8388 87.269 24.104 87.269H53.0013C53.2664 87.269 53.5207 87.3691 53.7082 87.5473C53.8957 87.7256 54.0011 87.9673 54.0011 88.2194C54.0011 88.4715 53.8957 88.7132 53.7082 88.8915C53.5207 89.0697 53.2664 89.1698 53.0013 89.1698Z" fill="white"/>
<path d="M53.0013 109.438H24.104C23.9727 109.438 23.8427 109.413 23.7214 109.365C23.6001 109.317 23.4898 109.247 23.397 109.159C23.3042 109.071 23.2305 108.966 23.1803 108.851C23.13 108.736 23.1042 108.612 23.1042 108.487C23.1042 108.362 23.13 108.239 23.1803 108.123C23.2305 108.008 23.3042 107.903 23.397 107.815C23.4898 107.727 23.6001 107.657 23.7214 107.609C23.8427 107.561 23.9727 107.537 24.104 107.537H53.0013C53.2664 107.537 53.5207 107.637 53.7082 107.815C53.8957 107.993 54.0011 108.235 54.0011 108.487C54.0011 108.739 53.8957 108.981 53.7082 109.159C53.5207 109.337 53.2664 109.438 53.0013 109.438Z" fill="white"/>
<path d="M76.4705 99.3104H24.104C23.8388 99.3104 23.5845 99.2103 23.397 99.032C23.2095 98.8538 23.1042 98.612 23.1042 98.36C23.1042 98.1079 23.2095 97.8661 23.397 97.6879C23.5845 97.5097 23.8388 97.4095 24.104 97.4095H76.4705C76.7356 97.4095 76.9899 97.5097 77.1774 97.6879C77.3649 97.8661 77.4702 98.1079 77.4702 98.36C77.4702 98.612 77.3649 98.8538 77.1774 99.032C76.9899 99.2103 76.7356 99.3104 76.4705 99.3104Z" fill="white"/>
<path d="M142.766 194.658C142.935 194.831 143.027 195.059 143.023 195.295C143.018 195.531 142.918 195.756 142.742 195.923C142.566 196.09 142.33 196.186 142.081 196.19C141.833 196.194 141.593 196.107 141.411 195.946C133.576 189.561 125.742 183.18 117.907 176.804C117.898 176.794 117.887 176.786 117.875 176.78C117.331 176.391 116.817 175.967 116.335 175.51C109.044 174.702 101.031 172.029 93.4389 170.869C86.7355 171.817 78.7732 179.021 72.0506 179.86C66.1934 180.634 60.2884 181.035 54.375 181.062C49.5631 181.038 50.9553 166.274 46.5907 164.111C42.0536 161.864 34.2328 166.1 33.0698 161.556C32.4755 159.242 29.5412 156.867 29.3495 154.479V139.663C29.9693 133.211 34.4628 126.821 39.5943 122.319C47.2946 115.564 58.8226 115.388 68.6765 115.199C80.4194 114.964 92.166 115.453 103.842 116.663C113.364 117.66 123.377 118.626 132.183 122.483C136.03 124.075 139.432 126.498 142.12 129.56C145.088 133.201 146.768 137.641 146.919 142.244C147.386 152.019 142.708 160.961 140.146 170.189C137.922 178.177 136.669 187.86 142.766 194.658Z" fill="#F2F2F2"/>
<path d="M118.798 177.74C126.74 184.212 134.684 190.683 142.629 197.152C142.811 197.314 143.052 197.401 143.3 197.397C143.549 197.393 143.786 197.297 143.962 197.13C144.137 196.963 144.238 196.738 144.242 196.501C144.247 196.265 144.154 196.037 143.985 195.864C137.889 189.071 139.142 179.388 141.364 171.395C143.93 162.166 148.607 153.227 148.139 143.455C147.99 138.85 146.31 134.409 143.338 130.769C140.652 127.707 137.25 125.284 133.404 123.693C124.599 119.836 114.587 118.866 105.061 117.872C93.3862 116.66 81.641 116.171 69.8994 116.406C60.0427 116.599 48.5125 116.77 40.8127 123.527C33.8004 129.681 32.8426 139.358 32.9102 147.902C32.9494 152.852 33.0493 157.937 34.2872 162.768C35.4508 167.309 37.9743 171.732 42.5128 173.979C46.8782 176.14 52.0645 176.174 56.8719 176.196C62.7853 176.173 68.6902 175.77 74.5466 174.99C86.2677 173.533 97.8769 171.179 109.693 170.467C112.584 170.293 115.484 170.216 118.382 170.273C119.616 170.298 119.615 168.475 118.382 168.451C106.893 168.223 95.5218 170.098 84.218 171.806C73.2844 173.458 62.1074 175.016 51.0095 174.18C48.5766 174.072 46.1844 173.545 43.9487 172.627C41.7895 171.652 39.9625 170.118 38.6765 168.203C35.7873 163.925 35.2399 158.567 34.9903 153.577C34.7056 149.258 34.7478 144.926 35.1165 140.613C35.5423 136.431 36.5678 132.19 38.9101 128.579C44.2533 120.345 56.4346 113.556 64.2761 118.397C73.2353 123.929 84.6937 124.168 98.4436 119.086C103.822 117.099 109.934 120.176 115.64 120.995C119.905 121.554 124.111 122.459 128.214 123.7C132.161 124.845 135.838 126.703 139.045 129.173C142.401 131.871 144.737 135.538 145.698 139.616C147.899 149.006 143.537 158.378 140.655 167.165C138.086 174.998 135.894 184.198 139.353 192.101C140.16 193.938 141.265 195.642 142.629 197.152L143.985 195.864C136.042 189.392 128.098 182.921 120.153 176.451C119.221 175.692 117.859 176.975 118.798 177.74H118.798Z" fill="#E6E6E6"/>
<path d="M84.9527 135.338H56.0554C55.7903 135.338 55.5359 135.238 55.3485 135.06C55.161 134.882 55.0556 134.64 55.0556 134.388C55.0556 134.136 55.161 133.894 55.3485 133.716C55.5359 133.538 55.7903 133.438 56.0554 133.438H84.9527C85.2179 133.437 85.4722 133.538 85.6597 133.716C85.8472 133.894 85.9525 134.136 85.9525 134.388C85.9525 134.64 85.8472 134.882 85.6597 135.06C85.4722 135.238 85.2179 135.338 84.9527 135.338Z" fill="white"/>
<path d="M84.9527 155.606H56.0554C55.7903 155.606 55.5359 155.506 55.3485 155.328C55.161 155.149 55.0556 154.908 55.0556 154.656C55.0556 154.404 55.161 154.162 55.3485 153.984C55.5359 153.805 55.7903 153.705 56.0554 153.705H84.9527C85.2179 153.705 85.4722 153.805 85.6597 153.984C85.8472 154.162 85.9525 154.404 85.9525 154.656C85.9525 154.908 85.8472 155.149 85.6597 155.328C85.4722 155.506 85.2179 155.606 84.9527 155.606Z" fill="white"/>
<path d="M108.422 145.479H56.0554C55.7903 145.479 55.5359 145.379 55.3485 145.2C55.161 145.022 55.0556 144.78 55.0556 144.528C55.0556 144.276 55.161 144.035 55.3485 143.856C55.5359 143.678 55.7903 143.578 56.0554 143.578H108.422C108.687 143.578 108.941 143.678 109.129 143.856C109.316 144.035 109.422 144.276 109.422 144.528C109.422 144.78 109.316 145.022 109.129 145.2C108.941 145.379 108.687 145.479 108.422 145.479Z" fill="white"/>
<path d="M300.281 228.359H219.524C218.783 228.359 218.073 228.079 217.549 227.581C217.025 227.083 216.73 226.407 216.73 225.703C216.73 224.999 217.025 224.323 217.549 223.825C218.073 223.327 218.783 223.047 219.524 223.047H300.281C301.022 223.047 301.732 223.327 302.256 223.825C302.78 224.323 303.075 224.999 303.075 225.703C303.075 226.407 302.78 227.083 302.256 227.581C301.732 228.079 301.022 228.359 300.281 228.359Z" fill="#F2F2F2"/>
<path d="M300.281 284.999H219.524C218.783 284.999 218.073 284.72 217.549 284.221C217.025 283.723 216.73 283.048 216.73 282.343C216.73 281.639 217.025 280.963 217.549 280.465C218.073 279.967 218.783 279.687 219.524 279.687H300.281C301.022 279.687 301.732 279.967 302.256 280.465C302.78 280.963 303.075 281.639 303.075 282.343C303.075 283.048 302.78 283.723 302.256 284.221C301.732 284.72 301.022 284.999 300.281 284.999Z" fill="#F2F2F2"/>
<path d="M365.868 256.698H219.524C219.157 256.698 218.793 256.63 218.454 256.497C218.114 256.364 217.806 256.168 217.546 255.921C217.286 255.675 217.08 255.382 216.939 255.059C216.798 254.737 216.726 254.391 216.726 254.042C216.726 253.693 216.798 253.347 216.939 253.024C217.08 252.702 217.286 252.409 217.546 252.162C217.806 251.915 218.114 251.72 218.454 251.587C218.793 251.453 219.157 251.385 219.524 251.386H365.868C366.608 251.387 367.318 251.667 367.841 252.165C368.364 252.663 368.658 253.338 368.658 254.042C368.658 254.745 368.364 255.42 367.841 255.918C367.318 256.416 366.608 256.697 365.868 256.698Z" fill="#F2F2F2"/>
<path d="M173.943 253.715L178.531 257.82L197.741 242.577L190.969 236.519L173.943 253.715Z" fill="#FFB6B6"/>
<path d="M182.297 271.465L179.747 260.164L182.837 257.043L181.174 255.72L176.009 251.629L174.746 250.623L162.865 260.781L166.309 263.858L169.98 261.32L168.491 265.814L177.611 273.976C178.049 274.367 178.606 274.615 179.202 274.684C179.798 274.752 180.402 274.638 180.925 274.358C181.448 274.078 181.863 273.646 182.11 273.126C182.357 272.605 182.422 272.023 182.297 271.465V271.465Z" fill="#2F2E41"/>
<path d="M151.578 269.588L157.807 270.488L164.504 247.569L155.312 246.241L151.578 269.588Z" fill="#FFB6B6"/>
<path d="M169.061 279.683L160.209 271.76L160.886 267.523L158.727 267.333L152.031 266.756L150.391 266.61L146.685 281.386L151.359 282.058L152.862 277.987L154.322 282.489L166.706 284.279C167.3 284.365 167.907 284.268 168.439 284.003C168.97 283.737 169.399 283.317 169.662 282.804C169.925 282.291 170.008 281.711 169.9 281.15C169.792 280.588 169.498 280.074 169.061 279.683L169.061 279.683Z" fill="#2F2E41"/>
<path d="M211.5 106.773L229.363 137.186C229.363 137.186 228.617 199.735 230.991 202.055C233.365 204.374 235.515 206.455 233.365 206.437C231.216 206.418 231.909 221.215 231.909 221.215L192.289 250.374L182.704 243.084L206.751 214.867L193.471 157.11C193.471 157.11 183.93 211.73 182.21 213.365C180.491 214.999 179.454 214.988 181.262 216.628C183.07 218.269 181.262 221.979 181.262 221.979L162.412 259.169L152.188 257.943C152.188 257.943 153.96 227.582 160.133 214.548V152.953C159.668 158.234 181.415 104.782 168.116 108.794C172.323 107.525 211.5 106.773 211.5 106.773Z" fill="#2F2E41"/>
<path d="M203.306 34.2952H188.539L186.448 42.2452L175.094 45.2299C175.094 45.2299 169.478 80.6338 174.195 83.4895C178.911 86.3452 175.622 95.2781 175.622 95.2781C175.622 95.2781 163.876 107.337 165.286 109.124C166.696 110.911 169.555 108.192 166.246 111.338C162.937 114.484 161.057 114.037 161.997 114.93C162.578 115.497 163.028 116.173 163.319 116.914L159.267 126.945C159.267 126.945 180.791 131.01 191.597 125.203C202.403 119.397 226.365 130.563 226.365 130.563C226.365 130.563 225.133 124.7 224.104 123.835C223.076 122.97 220.679 125.158 222.347 122.277C224.016 119.397 225.425 120.737 224.016 119.397C222.606 118.057 216.499 100.191 216.499 100.191C216.499 100.191 211.8 90.365 216.968 86.3452C222.137 82.3254 224.104 69.1407 224.104 69.1407L217.909 45.2299L207.572 43.0208L203.306 34.2952Z" fill="#E6E6E6"/>
<path d="M144.851 125.579L148.397 112.065L140.559 109.062L137.344 123.476C136.611 123.992 136.043 124.693 135.705 125.498C135.368 126.304 135.273 127.183 135.432 128.037C135.591 128.892 135.998 129.687 136.606 130.333C137.214 130.98 138 131.452 138.875 131.697C139.751 131.942 140.68 131.95 141.56 131.721C142.44 131.491 143.235 131.033 143.856 130.397C144.477 129.761 144.899 128.974 145.075 128.122C145.25 127.271 145.173 126.39 144.851 125.579V125.579Z" fill="#FFB6B6"/>
<path d="M179.302 44.3264L179.068 44.2882C176.892 43.9328 174.658 44.0869 172.558 44.7373C170.459 45.3877 168.558 46.5147 167.02 48.0207C163.005 51.9474 145.083 81.1496 145.728 86.03C146.33 90.5815 146.561 89.569 144.372 91.8929C142.182 94.2168 141.349 90.6778 141.316 95.516C141.282 100.354 143.226 100.312 141.159 101.495C139.092 102.678 137.726 101.854 138.103 105.118C138.481 108.383 137.903 109.249 137.781 110.39C137.658 111.531 134.691 118.851 134.691 118.851C134.691 118.851 143.425 121.081 146.947 124.419C146.947 124.419 147.348 116.158 149.126 115.408C150.904 114.658 152.56 115.049 152.06 112.926C151.56 110.803 148.993 109.862 152.138 109.936C155.283 110.011 160.14 94.1124 160.14 94.1124L181.144 57.6825L179.302 44.3264Z" fill="#E6E6E6"/>
<path d="M226.703 132.273L227.334 118.358L235.746 117.592L234.528 132.281C235.078 132.974 235.413 133.798 235.497 134.662C235.58 135.526 235.408 136.394 235.001 137.171C234.594 137.947 233.967 138.599 233.19 139.055C232.414 139.511 231.52 139.752 230.607 139.751C229.695 139.75 228.801 139.508 228.025 139.05C227.25 138.593 226.625 137.939 226.219 137.162C225.813 136.385 225.644 135.516 225.729 134.652C225.815 133.789 226.152 132.965 226.703 132.273Z" fill="#FFB6B6"/>
<path d="M217.909 45.0685L218.145 45.0949C220.338 45.3409 222.434 46.0911 224.253 47.2809C226.072 48.4706 227.559 50.0638 228.584 51.9227C231.263 56.7707 239.736 89.606 237.661 94.1122C235.727 98.3144 235.807 97.2811 237.213 100.1C238.619 102.919 240.474 99.7497 239.062 104.398C237.651 109.047 235.799 108.482 237.428 110.174C239.057 111.866 240.614 111.444 239.278 114.472C237.942 117.501 238.237 118.487 238.014 119.614C237.791 120.741 238.453 128.561 238.453 128.561C238.453 128.561 229.412 128.344 225.038 130.596C225.038 130.596 227.119 122.566 225.638 121.368C224.156 120.169 222.452 120.098 223.565 118.196C224.678 116.295 227.42 116.085 224.382 115.308C221.344 114.532 221.43 97.9766 221.43 97.9766L212.158 57.3795L217.909 45.0685Z" fill="#E6E6E6"/>
<path d="M162.369 24.9153C162.252 29.707 164.136 34.3467 166.842 38.422C167.746 36.0557 169.012 33.8289 170.599 31.8135C169.839 36.2788 170.648 40.8576 172.902 44.8415C172.981 44.8955 173.064 44.9457 173.148 44.9918C175.354 46.2531 178.151 46.7641 180.537 45.853C175.607 40.8009 174.979 32.4303 179.113 26.7636C180.283 25.1556 181.797 23.7335 182.521 21.9036C183.666 18.9839 182.566 15.7693 181.872 12.7252C181.223 9.89206 181.109 6.52061 183.109 4.4443C182.895 4.15413 182.604 3.92316 182.266 3.77505C181.927 3.62694 181.554 3.56703 181.183 3.60143C179.95 3.76697 179.053 4.78558 178.481 5.83469C177.91 6.88376 177.533 8.04652 176.736 8.95263C175.261 10.6487 172.75 11.0497 170.633 11.9435C165.507 14.1141 162.492 19.5835 162.369 24.9153Z" fill="#2F2E41"/>
<path d="M205.52 22.1756C205.227 21.201 207.246 27.159 206.272 27.2666C201.834 27.7505 195.743 30.2699 192.652 31.4453C192.513 31.4299 192.373 31.4146 192.238 31.3954C191.907 31.3608 191.583 31.3109 191.264 31.2533C184.067 29.9588 181.3 19.4494 181.3 19.3534C181.3 18.881 182.492 5.90477 184.372 5.71272C184.865 5.66181 185.361 5.63617 185.858 5.6359H190.52C191.485 5.43824 192.463 5.30349 193.447 5.23258H193.456C202.842 4.5527 210.244 9.99168 209.552 16.6099C209.548 16.6176 209.54 16.6253 209.536 16.6329C209.335 16.9172 209.159 17.1861 209.004 17.4434C208.852 17.6854 208.725 17.9159 208.615 18.1348C207.759 19.8249 209.958 21.9516 208.5 22.3485C206.561 22.8764 213.601 40.2288 205.924 40.2288C209.658 41.2381 206.328 24.8644 205.52 22.1756Z" fill="#2F2E41"/>
<path d="M197.14 32.3572C203.238 32.3572 208.18 27.6586 208.18 21.8626C208.18 16.0665 203.238 11.3679 197.14 11.3679C191.043 11.3679 186.101 16.0665 186.101 21.8626C186.101 27.6586 191.043 32.3572 197.14 32.3572Z" fill="#FFB6B6"/>
<path d="M209.552 17.1822C209.368 17.2744 209.188 17.3589 209.004 17.4434C208.811 17.5317 208.619 17.6201 208.426 17.7008C204.73 19.2948 201.721 19.4715 199.895 17.1822C199.846 15.9776 199.561 14.7923 199.056 13.6868C199.145 14.9222 198.803 16.151 198.081 17.1822H194.405C190.619 19.5714 188.674 19.8211 191.302 27.6646C192.035 29.8501 194.949 42.568 193.802 44.454C193.471 44.4194 189.943 30.4894 189.624 30.4318C182.427 29.1374 177.854 17.8659 178.44 17.2283C178.437 15.4151 178.875 13.6258 179.721 12.0006C180.791 9.94148 182.459 8.2167 184.527 7.03021C185.76 6.46189 187.045 6.00286 188.367 5.65894C188.4 5.65125 188.428 5.64355 188.461 5.63589C188.866 5.53217 189.28 5.43615 189.693 5.35548C190.547 5.18402 191.411 5.05963 192.281 4.9829C192.342 4.97906 192.403 4.97522 192.461 4.97522C192.808 4.97599 193.148 5.06483 193.447 5.23258C193.451 5.23258 193.451 5.2364 193.456 5.2364C193.669 5.35506 193.856 5.51307 194.004 5.70118C194.266 6.01768 194.407 6.40884 194.405 6.81127H198.499C198.65 6.81127 198.802 6.8151 198.953 6.82277C201.686 6.91153 204.285 7.96634 206.242 9.78077C208.199 11.5952 209.374 14.0387 209.536 16.6329C209.548 16.8173 209.552 16.9978 209.552 17.1822Z" fill="#2F2E41"/>
<path d="M185.414 13.8273C189.431 13.8273 192.687 10.7318 192.687 6.91336C192.687 3.09488 189.431 -0.000610352 185.414 -0.000610352C181.398 -0.000610352 178.141 3.09488 178.141 6.91336C178.141 10.7318 181.398 13.8273 185.414 13.8273Z" fill="#2F2E41"/>
<path d="M254.522 215.226C254.819 215.239 255.113 215.165 255.364 215.014C255.616 214.862 255.812 214.641 255.927 214.381C256.041 214.12 256.069 213.832 256.006 213.556C255.942 213.279 255.791 213.028 255.573 212.836L255.474 212.461C255.487 212.431 255.5 212.401 255.513 212.371C255.812 211.699 256.314 211.126 256.954 210.724C257.595 210.322 258.346 210.109 259.114 210.112C259.881 210.115 260.631 210.333 261.268 210.739C261.906 211.146 262.403 211.722 262.697 212.396C263.872 215.086 265.367 217.781 265.736 220.625C265.898 221.882 265.83 223.157 265.534 224.392C268.293 218.669 269.726 212.45 269.735 206.155C269.736 204.575 269.644 202.997 269.459 201.427C269.306 200.14 269.094 198.862 268.823 197.593C267.344 190.71 264.168 184.258 259.557 178.768C257.325 177.61 255.52 175.83 254.385 173.667C253.974 172.889 253.684 172.06 253.523 171.203C253.775 171.234 254.472 167.589 254.282 167.366C254.633 166.859 255.261 166.608 255.644 166.114C257.55 163.658 260.176 164.087 261.546 167.424C264.475 168.829 264.503 171.159 262.706 173.4C261.563 174.826 261.406 176.755 260.403 178.281C260.506 178.407 260.614 178.528 260.717 178.654C262.603 180.96 264.247 183.435 265.625 186.046C265.29 183.121 265.69 180.163 266.792 177.414C267.91 174.852 270.003 172.694 271.847 170.48C272.335 169.885 272.997 169.441 273.751 169.203C274.504 168.966 275.314 168.947 276.079 169.147C276.844 169.347 277.529 169.759 278.048 170.33C278.567 170.9 278.896 171.604 278.994 172.353C278.998 172.385 279.002 172.418 279.005 172.451C278.732 172.598 278.463 172.753 278.201 172.918C277.872 173.128 277.616 173.427 277.469 173.776C277.321 174.126 277.288 174.51 277.373 174.878C277.459 175.245 277.66 175.58 277.949 175.838C278.238 176.095 278.602 176.264 278.994 176.321L279.034 176.327C278.937 177.266 278.764 178.196 278.518 179.109C280.884 187.806 275.777 190.973 268.485 191.115C268.324 191.194 268.167 191.272 268.006 191.347C269.391 195.077 270.259 198.963 270.59 202.906C270.777 205.232 270.766 207.569 270.557 209.894L270.569 209.811C271.097 207.226 272.548 204.894 274.676 203.208C277.836 200.74 282.301 199.831 285.711 197.847C286.073 197.626 286.494 197.508 286.925 197.507C287.356 197.506 287.777 197.622 288.141 197.842C288.504 198.061 288.794 198.375 288.976 198.746C289.158 199.117 289.225 199.53 289.169 199.935L289.155 200.022C288.646 200.219 288.152 200.446 287.673 200.701C287.399 200.848 287.131 201.004 286.869 201.168C286.539 201.378 286.284 201.677 286.136 202.026C285.988 202.376 285.955 202.76 286.041 203.128C286.127 203.496 286.327 203.83 286.616 204.088C286.906 204.346 287.27 204.514 287.662 204.571L287.702 204.577C287.731 204.581 287.756 204.585 287.784 204.589C286.916 206.56 285.697 208.375 284.181 209.953C282.702 217.544 276.349 218.265 269.554 216.054H269.549C268.804 219.134 267.724 222.132 266.326 225H254.811C254.769 224.878 254.732 224.753 254.695 224.631C255.761 224.695 256.831 224.634 257.881 224.451C257.027 223.454 256.173 222.449 255.318 221.453C255.299 221.434 255.281 221.415 255.265 221.394C254.831 220.884 254.394 220.378 253.96 219.868L253.96 219.867C253.937 218.304 254.126 216.744 254.522 215.226L254.522 215.226Z" fill="#F2F2F2"/>
<path d="M86.2523 284.173C86.252 284.268 86.2714 284.362 86.3095 284.45C86.3477 284.538 86.4037 284.618 86.4743 284.685C86.545 284.752 86.629 284.805 86.7214 284.842C86.8138 284.878 86.9128 284.896 87.0127 284.896H402.24C402.441 284.896 402.635 284.82 402.777 284.684C402.92 284.549 403 284.365 403 284.173C403 283.982 402.92 283.798 402.777 283.662C402.635 283.527 402.441 283.45 402.24 283.45H87.0128C86.9128 283.45 86.8138 283.469 86.7214 283.505C86.629 283.541 86.545 283.594 86.4743 283.661C86.4037 283.729 86.3477 283.808 86.3096 283.896C86.2714 283.984 86.252 284.078 86.2523 284.173Z" fill="#CCCCCC"/>
<path d="M228.997 129.052C229.886 129.944 228.538 131.102 227.501 130.338C218.852 123.964 210.203 117.593 201.554 111.227C201.544 111.217 201.532 111.209 201.518 111.203C200.922 110.818 200.354 110.394 199.818 109.935C191.769 109.128 182.922 106.46 174.541 105.301C167.14 106.248 159.761 107.376 152.339 108.213C145.866 108.986 139.35 109.387 132.826 109.413C127.513 109.389 121.792 109.359 116.974 107.2C111.965 104.956 109.178 100.54 107.894 96.0035C107.261 93.6881 106.848 91.3233 106.659 88.9376V74.1448C107.344 67.7035 109.432 61.323 115.097 56.8288C123.598 50.0843 136.325 49.9085 147.203 49.7204C160.163 49.4852 173.126 49.9732 186.026 51.1821C196.538 52.1768 207.593 53.1412 217.314 56.9925C221.484 58.6483 225.413 60.947 228.284 64.0584C231.516 67.5833 233.385 72.0508 233.582 76.7224C234.098 86.4812 228.933 95.4091 226.104 104.622C223.649 112.598 222.267 122.266 228.997 129.052Z" fill="#FD6584"/>
<path d="M164.831 66.0856H135.934C135.803 66.0856 135.673 66.061 135.551 66.0133C135.43 65.9655 135.32 65.8955 135.227 65.8072C135.134 65.719 135.061 65.6142 135.01 65.4989C134.96 65.3836 134.934 65.26 134.934 65.1352C134.934 65.0104 134.96 64.8868 135.01 64.7715C135.061 64.6562 135.134 64.5514 135.227 64.4631C135.32 64.3749 135.43 64.3049 135.551 64.2571C135.673 64.2093 135.803 64.1848 135.934 64.1848H164.831C165.097 64.1848 165.351 64.2849 165.538 64.4631C165.726 64.6414 165.831 64.8831 165.831 65.1352C165.831 65.3873 165.726 65.629 165.538 65.8072C165.351 65.9855 165.097 66.0856 164.831 66.0856Z" fill="white"/>
<path d="M164.831 86.3534H135.934C135.669 86.3534 135.415 86.2532 135.227 86.075C135.04 85.8968 134.934 85.655 134.934 85.4029C134.934 85.1509 135.04 84.9091 135.227 84.7309C135.415 84.5526 135.669 84.4525 135.934 84.4525H164.831C165.097 84.4525 165.351 84.5526 165.538 84.7309C165.726 84.9091 165.831 85.1509 165.831 85.4029C165.831 85.655 165.726 85.8968 165.538 86.075C165.351 86.2532 165.097 86.3534 164.831 86.3534Z" fill="white"/>
<path d="M188.301 76.2261H135.934C135.669 76.2261 135.415 76.126 135.227 75.9477C135.04 75.7695 134.934 75.5278 134.934 75.2757C134.934 75.0236 135.04 74.7819 135.227 74.6036C135.415 74.4254 135.669 74.3253 135.934 74.3253H188.301C188.566 74.3253 188.82 74.4254 189.008 74.6036C189.195 74.7819 189.3 75.0236 189.3 75.2757C189.3 75.5278 189.195 75.7695 189.008 75.9477C188.82 76.126 188.566 76.2261 188.301 76.2261Z" fill="white"/>
<path d="M235.547 66.7791C238.226 70.8419 239.741 75.5181 239.277 80.3381C238.877 84.4971 237.082 88.4085 235.12 92.0944C233.087 95.9142 230.811 99.6234 229.148 103.612C227.323 107.959 226.648 112.665 227.184 117.318C227.512 120.339 228.154 123.319 228.758 126.298L230.602 135.392L232.204 134.506L205.698 112.723C204.769 111.959 203.407 113.243 204.343 114.011L230.848 135.794C231 135.93 231.194 136.015 231.401 136.038C231.608 136.06 231.817 136.018 231.997 135.919C232.177 135.819 232.318 135.667 232.4 135.485C232.482 135.303 232.499 135.1 232.45 134.908C231.367 129.565 230.087 124.219 229.293 118.828C228.837 116.11 228.773 113.346 229.103 110.611C229.428 108.527 230.004 106.485 230.821 104.526C233.999 96.6288 239.954 89.7208 241.102 81.1351C241.821 75.7558 240.203 70.4103 237.203 65.8593C236.549 64.8678 234.89 65.7815 235.547 66.7792V66.7791Z" fill="#3F3D56"/>
<path d="M207.374 104.75L168.175 109.158L148.575 111.363C142.604 112.034 136.381 112.977 130.415 111.789C120.37 109.788 114.133 101.136 112.171 92.0174C110.957 86.373 111.387 80.4672 112.408 74.8282C112.953 71.8219 113.672 68.8469 114.449 65.888C115.141 63.251 115.658 60.4115 116.854 57.9292C117.809 55.9109 119.229 54.1228 121.01 52.6977C122.791 51.2726 124.887 50.247 127.142 49.697C128.55 49.4226 129.977 49.2429 131.412 49.1592C133.024 49.0053 134.638 48.8638 136.252 48.7344C139.481 48.4758 142.714 48.2664 145.951 48.1062C147.569 48.026 149.188 47.9582 150.807 47.9026C152.037 47.8598 152.043 46.0372 150.807 46.0802C144.069 46.3146 137.344 46.7586 130.632 47.4122C127.898 47.68 125.37 48.067 122.901 49.2846C120.769 50.345 118.895 51.8218 117.404 53.6181C115.877 55.4714 114.756 57.5974 114.109 59.8701C113.227 62.8899 112.426 65.9397 111.696 68.9957C110.223 75.1558 109.165 81.5051 109.657 87.8381C110.384 97.2048 115.101 107.198 124.256 111.658C129.662 114.291 135.831 114.409 141.755 113.906C148.362 113.345 154.949 112.468 161.536 111.727L202.316 107.141L207.374 106.572C208.584 106.436 208.599 104.612 207.374 104.75H207.374Z" fill="#3F3D56"/>
</g>
<defs>
<clipPath id="clip0_416_436">
<rect width="403" height="285" fill="white" transform="translate(0 -0.000610352)"/>
</clipPath>
</defs>
</svg>
